<?xml version="1.0"?>
<svg xmlns="http://www.w3.org/2000/svg" xmlns:xlink="http://www.w3.org/1999/xlink" version="1.1" id="Layer_1" x="0px" y="0px" viewBox="0 0 512.001 512.001" style="enable-background:new 0 0 512.001 512.001;" xml:space="preserve" width="512px" height="512px" class=""><g><path style="fill:#C3DDF7;" d="M367.735,230.155c-4.383,4.385-11.559,4.385-15.943,0.001L195.554,73.916  c-4.386-4.383-4.385-11.559,0-15.944l54.683-54.683c4.385-4.385,11.559-4.386,15.944,0L422.42,159.528  c4.385,4.383,4.385,11.558-0.002,15.943L367.735,230.155z" data-original="#C3DDF7" class=""/><g>
	<path style="fill:#3F4963;" d="M372.325,165.611c-2.113,0-4.227-0.806-5.84-2.418L262.513,59.223c-3.225-3.226-3.225-8.454,0-11.68   c3.226-3.224,8.454-3.224,11.679,0l103.971,103.97c3.225,3.226,3.225,8.454,0,11.679   C376.552,164.805,374.438,165.611,372.325,165.611z" data-original="#3F4963" class=""/>
	<path style="fill:#3F4963;" d="M331.988,170.689c-2.114,0-4.227-0.806-5.84-2.419l-68.709-68.71c-3.225-3.226-3.225-8.454,0-11.679   c3.226-3.224,8.454-3.224,11.679,0l68.709,68.711c3.225,3.226,3.225,8.454,0,11.679   C336.215,169.881,334.101,170.689,331.988,170.689z" data-original="#3F4963" class=""/>
</g><path style="fill:#FFD553;" d="M417.874,124.954c-4.883-5.178-7.13-6.233-14.973-5.499  c-64.231,6.001-118.105,50.431-141.226,111.559v-0.008c-2.51,6.295-3.941,7.759-5.674,7.759c-1.733,0-3.161-1.464-5.674-7.759  l-0.002,0.004c-23.123-61.127-76.995-105.555-141.224-111.556c-7.843-0.734-10.088,0.32-14.973,5.499  c-41.667,44.203-67.453,105.36-67.453,172.928c0,134.829,102.672,214.119,229.322,214.119h0.004  c126.65,0,229.322-79.289,229.322-214.119C485.327,230.313,459.541,169.156,417.874,124.954z" data-original="#FFD553" class=""/><path style="fill:#E57481" d="M387.39,347.619h-31.992c-4.562,0-8.258-3.696-8.258-8.258c0-4.562,3.696-8.258,8.258-8.258h31.992  c4.562,0,8.258,3.696,8.258,8.258C395.648,343.923,391.952,347.619,387.39,347.619z" data-original="#FF6376" class="active-path" data-old_color="#DA848E"/><g>
	<path style="fill:#3F4963;" d="M237.281,337.288c-14.878,0-26.981-12.103-26.981-26.981c0-4.562,3.696-8.258,8.258-8.258   s8.258,3.696,8.258,8.258c0,5.77,4.695,10.465,10.465,10.465c5.769,0,10.463-4.695,10.463-10.465c0-4.562,3.696-8.258,8.258-8.258   s8.258,3.696,8.258,8.258C264.26,325.185,252.158,337.288,237.281,337.288z" data-original="#3F4963" class=""/>
	<path style="fill:#3F4963;" d="M274.724,337.288c-14.878,0-26.981-12.103-26.981-26.981c0-4.562,3.696-8.258,8.258-8.258   c4.562,0,8.258,3.696,8.258,8.258c0,5.77,4.695,10.465,10.465,10.465c5.769,0,10.463-4.695,10.463-10.465   c0-4.562,3.696-8.258,8.258-8.258c4.561,0,8.258,3.696,8.258,8.258C301.703,325.185,289.601,337.288,274.724,337.288z" data-original="#3F4963" class=""/>
	<path style="fill:#3F4963;" d="M386.347,311.38c-4.562,0-8.258-3.696-8.258-8.258c0-3.691-3.003-6.695-6.695-6.695   s-6.695,3.004-6.695,6.695c0,4.562-3.696,8.258-8.258,8.258c-4.562,0-8.258-3.696-8.258-8.258   c0-12.799,10.412-23.211,23.211-23.211c12.799,0,23.211,10.412,23.211,23.211C394.606,307.684,390.909,311.38,386.347,311.38z" data-original="#3F4963" class=""/>
</g><path style="fill:#E57481" d="M156.605,347.619h-31.992c-4.562,0-8.258-3.696-8.258-8.258c0-4.562,3.696-8.258,8.258-8.258h31.992  c4.562,0,8.258,3.696,8.258,8.258C164.863,343.923,161.166,347.619,156.605,347.619z" data-original="#FF6376" class="active-path" data-old_color="#DA848E"/><g>
	<path style="fill:#3F4963;" d="M155.561,311.38c-4.562,0-8.258-3.696-8.258-8.258c0-3.691-3.004-6.695-6.695-6.695   c-3.692,0-6.695,3.004-6.695,6.695c0,4.562-3.696,8.258-8.258,8.258s-8.258-3.696-8.258-8.258   c0-12.799,10.412-23.211,23.211-23.211s23.211,10.412,23.211,23.211C163.819,307.684,160.123,311.38,155.561,311.38z" data-original="#3F4963" class=""/>
	
	
	
	
	
	
	
	
	
</g></g> </svg>
